STARTFONT 2.1
FONT -spectrum-berryscaled-Bold-R-Normal--22-160-100-100-M-120-ISO10646-1
SIZE 16 75 75
FONTBOUNDINGBOX 12 22 0 -4
COMMENT "Generated by fontforge, http://fontforge.sourceforge.net"
COMMENT "This font was automatically resized by bdfresize-1.5"
COMMENT "mag_x = 2/1, mag_y = 2/1, blackness = 4"
STARTPROPERTIES 23
FONTNAME_REGISTRY ""
FOUNDRY "spectrum"
FAMILY_NAME "berryscaled"
WEIGHT_NAME "Bold"
SLANT "R"
SETWIDTH_NAME "Normal"
ADD_STYLE_NAME ""
PIXEL_SIZE 22
POINT_SIZE 160
RESOLUTION_X 100
RESOLUTION_Y 100
SPACING "M"
AVERAGE_WIDTH 100
CHARSET_REGISTRY "ISO10646"
CHARSET_ENCODING "1"
COPYRIGHT "spectrum"
FACE_NAME "berry"
_GBDFED_INFO "Edited with gbdfed 1.6."
X_HEIGHT 0
QUAD_WIDTH 6
DEFAULT_CHAR 0
FONT_DESCENT 4
FONT_ASCENT 18
ENDPROPERTIES
CHARS 239
STARTCHAR char32
ENCODING 32
SWIDTH 1440 0
DWIDTH 12 0
BBX 0 0 0 0
BITMAP
ENDCHAR
STARTCHAR char33
ENCODING 33
SWIDTH 1440 0
DWIDTH 12 0
BBX 4 14 4 0
BITMAP
F0
F0
F0
F0
F0
F0
F0
F0
F0
F0
00
00
F0
F0
ENDCHAR
STARTCHAR char34
ENCODING 34
SWIDTH 1440 0
DWIDTH 12 0
BBX 10 6 0 8
BITMAP
F3C0
F3C0
F3C0
F3C0
F3C0
F3C0
ENDCHAR
STARTCHAR char35
ENCODING 35
SWIDTH 1440 0
DWIDTH 12 0
BBX 12 10 0 2
BITMAP
3CC0
3CC0
FFF0
FFF0
3CC0
3CC0
FFF0
FFF0
3CC0
3CC0
ENDCHAR
STARTCHAR char36
ENCODING 36
SWIDTH 1440 0
DWIDTH 12 0
BBX 10 18 0 -2
BITMAP
0C00
0C00
3F00
3F00
FCC0
FCC0
FC00
FC00
3F00
3F00
0CC0
0CC0
FCC0
FCC0
3F00
3F00
0C00
0C00
ENDCHAR
STARTCHAR char38
ENCODING 37
SWIDTH 1440 0
DWIDTH 12 0
BBX 10 14 2 0
BITMAP
3FC0
3FC0
CFC0
CFC0
F300
F300
0C00
0C00
33C0
33C0
FCC0
FCC0
FF00
FF00
ENDCHAR
STARTCHAR char38
ENCODING 38
SWIDTH 1440 0
DWIDTH 12 0
BBX 10 14 0 0
BITMAP
3C00
3C00
F300
F300
FC00
FC00
3000
3000
FFC0
FFC0
F300
F300
3FC0
3FC0
ENDCHAR
STARTCHAR char39
ENCODING 39
SWIDTH 1440 0
DWIDTH 12 0
BBX 4 6 2 8
BITMAP
F0
F0
F0
F0
F0
F0
ENDCHAR
STARTCHAR char40
ENCODING 40
SWIDTH 1440 0
DWIDTH 12 0
BBX 8 18 2 -2
BITMAP
0F
0F
3C
3C
F0
F0
F0
F0
F0
F0
F0
F0
F0
F0
3C
3C
0F
0F
ENDCHAR
STARTCHAR char41
ENCODING 41
SWIDTH 1440 0
DWIDTH 12 0
BBX 8 18 0 -2
BITMAP
F0
F0
3C
3C
0F
0F
0F
0F
0F
0F
0F
0F
0F
0F
3C
3C
F0
F0
ENDCHAR
STARTCHAR $10
ENCODING 42
SWIDTH 1440 0
DWIDTH 12 0
BBX 10 10 0 2
BITMAP
0C00
0C00
FFC0
FFC0
3F00
3F00
FFC0
FFC0
0C00
0C00
ENDCHAR
STARTCHAR $11
ENCODING 43
SWIDTH 1440 0
DWIDTH 12 0
BBX 10 10 0 2
BITMAP
0C00
0C00
0C00
0C00
FFC0
FFC0
0C00
0C00
0C00
0C00
ENDCHAR
STARTCHAR $12
ENCODING 44
SWIDTH 1440 0
DWIDTH 12 0
BBX 6 8 2 -4
BITMAP
FC
FC
FC
FC
3C
3C
F0
F0
ENDCHAR
STARTCHAR $13
ENCODING 45
SWIDTH 1440 0
DWIDTH 12 0
BBX 10 2 0 6
BITMAP
FFC0
FFC0
ENDCHAR
STARTCHAR $14
ENCODING 46
SWIDTH 1440 0
DWIDTH 12 0
BBX 6 4 2 0
BITMAP
FC
FC
FC
FC
ENDCHAR
STARTCHAR $15
ENCODING 47
SWIDTH 1440 0
DWIDTH 12 0
BBX 12 20 0 -4
BITMAP
00F0
00F0
00F0
00F0
03C0
03C0
03C0
03C0
0F00
0F00
0F00
0F00
3C00
3C00
3C00
3C00
F000
F000
F000
F000
ENDCHAR
STARTCHAR $16
ENCODING 48
SWIDTH 1440 0
DWIDTH 12 0
BBX 10 14 0 0
BITMAP
3F00
3F00
F0C0
F0C0
F3C0
F3C0
FFC0
FFC0
FCC0
FCC0
F0C0
F0C0
3F00
3F00
ENDCHAR
STARTCHAR $17
ENCODING 49
SWIDTH 1440 0
DWIDTH 12 0
BBX 6 14 2 0
BITMAP
3C
3C
FC
FC
3C
3C
3C
3C
3C
3C
3C
3C
3C
3C
ENDCHAR
STARTCHAR $18
ENCODING 50
SWIDTH 1440 0
DWIDTH 12 0
BBX 10 14 0 0
BITMAP
3F00
3F00
F3C0
F3C0
03C0
03C0
0F00
0F00
3C00
3C00
F000
F000
FFC0
FFC0
ENDCHAR
STARTCHAR $19
ENCODING 51
SWIDTH 1440 0
DWIDTH 12 0
BBX 10 14 0 0
BITMAP
3F00
3F00
F3C0
F3C0
03C0
03C0
0F00
0F00
03C0
03C0
F3C0
F3C0
3F00
3F00
ENDCHAR
STARTCHAR $20
ENCODING 52
SWIDTH 1440 0
DWIDTH 12 0
BBX 10 14 0 0
BITMAP
0300
0300
0F00
0F00
3F00
3F00
CF00
CF00
FFC0
FFC0
0F00
0F00
0F00
0F00
ENDCHAR
STARTCHAR $21
ENCODING 53
SWIDTH 1440 0
DWIDTH 12 0
BBX 10 14 0 0
BITMAP
FFC0
FFC0
F000
F000
FF00
FF00
03C0
03C0
03C0
03C0
F3C0
F3C0
3F00
3F00
ENDCHAR
STARTCHAR $22
ENCODING 54
SWIDTH 1440 0
DWIDTH 12 0
BBX 10 14 0 0
BITMAP
3F00
3F00
F000
F000
FF00
FF00
F3C0
F3C0
F3C0
F3C0
F3C0
F3C0
3F00
3F00
ENDCHAR
STARTCHAR $23
ENCODING 55
SWIDTH 1440 0
DWIDTH 12 0
BBX 10 14 0 0
BITMAP
FFC0
FFC0
03C0
03C0
03C0
03C0
0F00
0F00
3C00
3C00
3C00
3C00
3C00
3C00
ENDCHAR
STARTCHAR $24
ENCODING 56
SWIDTH 1440 0
DWIDTH 12 0
BBX 10 14 0 0
BITMAP
3F00
3F00
F3C0
F3C0
F3C0
F3C0
3F00
3F00
F3C0
F3C0
F3C0
F3C0
3F00
3F00
ENDCHAR
STARTCHAR $25
ENCODING 57
SWIDTH 1440 0
DWIDTH 12 0
BBX 10 14 0 0
BITMAP
3F00
3F00
F3C0
F3C0
F3C0
F3C0
F3C0
F3C0
3FC0
3FC0
03C0
03C0
3F00
3F00
ENDCHAR
STARTCHAR $26
ENCODING 58
SWIDTH 1440 0
DWIDTH 12 0
BBX 6 10 2 0
BITMAP
FC
FC
FC
FC
00
00
FC
FC
FC
FC
ENDCHAR
STARTCHAR $27
ENCODING 59
SWIDTH 1440 0
DWIDTH 12 0
BBX 6 14 2 -4
BITMAP
FC
FC
FC
FC
00
00
FC
FC
FC
FC
3C
3C
F0
F0
ENDCHAR
STARTCHAR $28
ENCODING 60
SWIDTH 1440 0
DWIDTH 12 0
BBX 10 14 0 0
BITMAP
03C0
03C0
0F00
0F00
3C00
3C00
F000
F000
3C00
3C00
0F00
0F00
03C0
03C0
ENDCHAR
STARTCHAR $29
ENCODING 61
SWIDTH 1440 0
DWIDTH 12 0
BBX 10 6 0 4
BITMAP
FFC0
FFC0
0000
0000
FFC0
FFC0
ENDCHAR
STARTCHAR $30
ENCODING 62
SWIDTH 1440 0
DWIDTH 12 0
BBX 10 14 0 0
BITMAP
F000
F000
3C00
3C00
0F00
0F00
03C0
03C0
0F00
0F00
3C00
3C00
F000
F000
ENDCHAR
STARTCHAR $31
ENCODING 63
SWIDTH 1440 0
DWIDTH 12 0
BBX 10 14 0 0
BITMAP
3F00
3F00
F3C0
F3C0
03C0
03C0
0F00
0F00
3C00
3C00
0000
0000
3C00
3C00
ENDCHAR
STARTCHAR $32
ENCODING 64
SWIDTH 1440 0
DWIDTH 12 0
BBX 10 14 0 0
BITMAP
3F00
3F00
F0C0
F0C0
FFC0
FFC0
FCC0
FCC0
FFC0
FFC0
F000
F000
3FC0
3FC0
ENDCHAR
STARTCHAR $33
ENCODING 65
SWIDTH 1440 0
DWIDTH 12 0
BBX 10 14 0 0
BITMAP
3F00
3F00
F3C0
F3C0
F3C0
F3C0
FFC0
FFC0
F3C0
F3C0
F3C0
F3C0
F3C0
F3C0
ENDCHAR
STARTCHAR $34
ENCODING 66
SWIDTH 1440 0
DWIDTH 12 0
BBX 10 14 0 0
BITMAP
FF00
FF00
F3C0
F3C0
F3C0
F3C0
FF00
FF00
F3C0
F3C0
F3C0
F3C0
FF00
FF00
ENDCHAR
STARTCHAR $35
ENCODING 67
SWIDTH 1440 0
DWIDTH 12 0
BBX 10 14 0 0
BITMAP
3FC0
3FC0
F000
F000
F000
F000
F000
F000
F000
F000
F000
F000
3FC0
3FC0
ENDCHAR
STARTCHAR $36
ENCODING 68
SWIDTH 1440 0
DWIDTH 12 0
BBX 10 14 0 0
BITMAP
FF00
FF00
F3C0
F3C0
F3C0
F3C0
F3C0
F3C0
F3C0
F3C0
F3C0
F3C0
FF00
FF00
ENDCHAR
STARTCHAR $37
ENCODING 69
SWIDTH 1440 0
DWIDTH 12 0
BBX 10 14 0 0
BITMAP
FFC0
FFC0
F000
F000
F000
F000
FF00
FF00
F000
F000
F000
F000
FFC0
FFC0
ENDCHAR
STARTCHAR $38
ENCODING 70
SWIDTH 1440 0
DWIDTH 12 0
BBX 10 14 0 0
BITMAP
FFC0
FFC0
F000
F000
F000
F000
FF00
FF00
F000
F000
F000
F000
F000
F000
ENDCHAR
STARTCHAR $39
ENCODING 71
SWIDTH 1440 0
DWIDTH 12 0
BBX 10 14 0 0
BITMAP
3FC0
3FC0
F000
F000
F000
F000
F3C0
F3C0
F0C0
F0C0
F0C0
F0C0
3FC0
3FC0
ENDCHAR
STARTCHAR $40
ENCODING 72
SWIDTH 1440 0
DWIDTH 12 0
BBX 10 14 0 0
BITMAP
F3C0
F3C0
F3C0
F3C0
F3C0
F3C0
FFC0
FFC0
F3C0
F3C0
F3C0
F3C0
F3C0
F3C0
ENDCHAR
STARTCHAR $41
ENCODING 73
SWIDTH 1440 0
DWIDTH 12 0
BBX 8 14 2 0
BITMAP
FF
FF
3C
3C
3C
3C
3C
3C
3C
3C
3C
3C
FF
FF
ENDCHAR
STARTCHAR $42
ENCODING 74
SWIDTH 1440 0
DWIDTH 12 0
BBX 8 14 2 0
BITMAP
FF
FF
0F
0F
0F
0F
0F
0F
0F
0F
0F
0F
FC
FC
ENDCHAR
STARTCHAR $43
ENCODING 75
SWIDTH 1440 0
DWIDTH 12 0
BBX 10 14 0 0
BITMAP
F3C0
F3C0
FF00
FF00
FC00
FC00
F000
F000
FC00
FC00
FF00
FF00
F3C0
F3C0
ENDCHAR
STARTCHAR $44
ENCODING 76
SWIDTH 1440 0
DWIDTH 12 0
BBX 10 14 0 0
BITMAP
F000
F000
F000
F000
F000
F000
F000
F000
F000
F000
F000
F000
FFC0
FFC0
ENDCHAR
STARTCHAR $45
ENCODING 77
SWIDTH 1440 0
DWIDTH 12 0
BBX 10 14 0 0
BITMAP
C0C0
C0C0
F3C0
F3C0
FFC0
FFC0
FFC0
FFC0
F3C0
F3C0
F3C0
F3C0
F3C0
F3C0
ENDCHAR
STARTCHAR $46
ENCODING 78
SWIDTH 1440 0
DWIDTH 12 0
BBX 10 14 0 0
BITMAP
F0C0
F0C0
FCC0
FCC0
FFC0
FFC0
F3C0
F3C0
F3C0
F3C0
F3C0
F3C0
F3C0
F3C0
ENDCHAR
STARTCHAR $47
ENCODING 79
SWIDTH 1440 0
DWIDTH 12 0
BBX 10 14 0 0
BITMAP
3F00
3F00
F3C0
F3C0
F3C0
F3C0
F3C0
F3C0
F3C0
F3C0
F3C0
F3C0
3F00
3F00
ENDCHAR
STARTCHAR $48
ENCODING 80
SWIDTH 1440 0
DWIDTH 12 0
BBX 10 14 0 0
BITMAP
FF00
FF00
F3C0
F3C0
F3C0
F3C0
FF00
FF00
F000
F000
F000
F000
F000
F000
ENDCHAR
STARTCHAR $49
ENCODING 81
SWIDTH 1440 0
DWIDTH 12 0
BBX 10 16 0 -2
BITMAP
3F00
3F00
F3C0
F3C0
F3C0
F3C0
F3C0
F3C0
FFC0
FFC0
F3C0
F3C0
3F00
3F00
03C0
03C0
ENDCHAR
STARTCHAR $50
ENCODING 82
SWIDTH 1440 0
DWIDTH 12 0
BBX 10 14 0 0
BITMAP
FF00
FF00
F3C0
F3C0
F3C0
F3C0
FF00
FF00
F3C0
F3C0
F3C0
F3C0
F3C0
F3C0
ENDCHAR
STARTCHAR $51
ENCODING 83
SWIDTH 1440 0
DWIDTH 12 0
BBX 10 14 0 0
BITMAP
3FC0
3FC0
F000
F000
F000
F000
3F00
3F00
03C0
03C0
03C0
03C0
FF00
FF00
ENDCHAR
STARTCHAR $52
ENCODING 84
SWIDTH 1440 0
DWIDTH 12 0
BBX 12 14 0 0
BITMAP
FFF0
FFF0
0F00
0F00
0F00
0F00
0F00
0F00
0F00
0F00
0F00
0F00
0F00
0F00
ENDCHAR
STARTCHAR $53
ENCODING 85
SWIDTH 1440 0
DWIDTH 12 0
BBX 10 14 0 0
BITMAP
F3C0
F3C0
F3C0
F3C0
F3C0
F3C0
F3C0
F3C0
F3C0
F3C0
F3C0
F3C0
3F00
3F00
ENDCHAR
STARTCHAR $54
ENCODING 86
SWIDTH 1440 0
DWIDTH 12 0
BBX 10 14 0 0
BITMAP
F3C0
F3C0
F3C0
F3C0
F3C0
F3C0
F3C0
F3C0
F3C0
F3C0
3F00
3F00
0C00
0C00
ENDCHAR
STARTCHAR $55
ENCODING 87
SWIDTH 1440 0
DWIDTH 12 0
BBX 10 14 0 0
BITMAP
F3C0
F3C0
F3C0
F3C0
F3C0
F3C0
FFC0
FFC0
FFC0
FFC0
F3C0
F3C0
C0C0
C0C0
ENDCHAR
STARTCHAR $56
ENCODING 88
SWIDTH 1440 0
DWIDTH 12 0
BBX 10 14 0 0
BITMAP
F3C0
F3C0
F3C0
F3C0
3F00
3F00
0C00
0C00
3F00
3F00
F3C0
F3C0
F3C0
F3C0
ENDCHAR
STARTCHAR $57
ENCODING 89
SWIDTH 1440 0
DWIDTH 12 0
BBX 12 14 0 0
BITMAP
FCF0
FCF0
FCF0
FCF0
3CC0
3CC0
3FC0
3FC0
0F00
0F00
0F00
0F00
0F00
0F00
ENDCHAR
STARTCHAR $58
ENCODING 90
SWIDTH 1440 0
DWIDTH 12 0
BBX 10 14 0 0
BITMAP
FFC0
FFC0
03C0
03C0
0FC0
0FC0
3F00
3F00
FC00
FC00
F000
F000
FFC0
FFC0
ENDCHAR
STARTCHAR $59
ENCODING 91
SWIDTH 1440 0
DWIDTH 12 0
BBX 6 18 2 -2
BITMAP
FC
FC
F0
F0
F0
F0
F0
F0
F0
F0
F0
F0
F0
F0
F0
F0
FC
FC
ENDCHAR
STARTCHAR $60
ENCODING 92
SWIDTH 1440 0
DWIDTH 12 0
BBX 12 20 0 -4
BITMAP
F000
F000
F000
F000
3C00
3C00
3C00
3C00
0F00
0F00
0F00
0F00
03C0
03C0
03C0
03C0
00F0
00F0
00F0
00F0
ENDCHAR
STARTCHAR $61
ENCODING 93
SWIDTH 1440 0
DWIDTH 12 0
BBX 6 18 2 -2
BITMAP
FC
FC
3C
3C
3C
3C
3C
3C
3C
3C
3C
3C
3C
3C
3C
3C
FC
FC
ENDCHAR
STARTCHAR $62
ENCODING 94
SWIDTH 1440 0
DWIDTH 12 0
BBX 12 6 0 8
BITMAP
0F00
0F00
3FC0
3FC0
F0F0
F0F0
ENDCHAR
STARTCHAR $63
ENCODING 95
SWIDTH 1440 0
DWIDTH 12 0
BBX 12 2 0 -2
BITMAP
FFF0
FFF0
ENDCHAR
STARTCHAR $64
ENCODING 96
SWIDTH 1440 0
DWIDTH 12 0
BBX 8 6 0 10
BITMAP
F0
F0
3C
3C
0F
0F
ENDCHAR
STARTCHAR $65
ENCODING 97
SWIDTH 1440 0
DWIDTH 12 0
BBX 10 10 0 0
BITMAP
3FC0
3FC0
F3C0
F3C0
F3C0
F3C0
F3C0
F3C0
3FC0
3FC0
ENDCHAR
STARTCHAR $66
ENCODING 98
SWIDTH 1440 0
DWIDTH 12 0
BBX 10 14 0 0
BITMAP
F000
F000
F000
F000
FF00
FF00
F3C0
F3C0
F3C0
F3C0
F3C0
F3C0
FF00
FF00
ENDCHAR
STARTCHAR $67
ENCODING 99
SWIDTH 1440 0
DWIDTH 12 0
BBX 10 10 0 0
BITMAP
3FC0
3FC0
F000
F000
F000
F000
F000
F000
3FC0
3FC0
ENDCHAR
STARTCHAR $68
ENCODING 100
SWIDTH 1440 0
DWIDTH 12 0
BBX 10 14 0 0
BITMAP
03C0
03C0
03C0
03C0
3FC0
3FC0
F3C0
F3C0
F3C0
F3C0
F3C0
F3C0
3FC0
3FC0
ENDCHAR
STARTCHAR $69
ENCODING 101
SWIDTH 1440 0
DWIDTH 12 0
BBX 10 10 0 0
BITMAP
3F00
3F00
F3C0
F3C0
FFC0
FFC0
F000
F000
3FC0
3FC0
ENDCHAR
STARTCHAR $70
ENCODING 102
SWIDTH 1440 0
DWIDTH 12 0
BBX 8 14 2 0
BITMAP
3F
3F
F0
F0
F0
F0
FF
FF
F0
F0
F0
F0
F0
F0
ENDCHAR
STARTCHAR $71
ENCODING 103
SWIDTH 1440 0
DWIDTH 12 0
BBX 10 14 0 -4
BITMAP
3FC0
3FC0
F3C0
F3C0
F3C0
F3C0
F3C0
F3C0
3FC0
3FC0
03C0
03C0
3F00
3F00
ENDCHAR
STARTCHAR $72
ENCODING 104
SWIDTH 1440 0
DWIDTH 12 0
BBX 10 14 0 0
BITMAP
F000
F000
F000
F000
FF00
FF00
F3C0
F3C0
F3C0
F3C0
F3C0
F3C0
F3C0
F3C0
ENDCHAR
STARTCHAR $73
ENCODING 105
SWIDTH 1440 0
DWIDTH 12 0
BBX 8 14 2 0
BITMAP
3C
3C
00
00
FC
FC
3C
3C
3C
3C
3C
3C
3F
3F
ENDCHAR
STARTCHAR $74
ENCODING 106
SWIDTH 1440 0
DWIDTH 12 0
BBX 8 16 0 -2
BITMAP
0F
0F
00
00
3F
3F
0F
0F
0F
0F
0F
0F
0F
0F
FC
FC
ENDCHAR
STARTCHAR $75
ENCODING 107
SWIDTH 1440 0
DWIDTH 12 0
BBX 10 14 0 0
BITMAP
F000
F000
F000
F000
F3C0
F3C0
FF00
FF00
FC00
FC00
FF00
FF00
F3C0
F3C0
ENDCHAR
STARTCHAR $76
ENCODING 108
SWIDTH 1440 0
DWIDTH 12 0
BBX 8 14 2 0
BITMAP
FC
FC
3C
3C
3C
3C
3C
3C
3C
3C
3C
3C
3F
3F
ENDCHAR
STARTCHAR $77
ENCODING 109
SWIDTH 1440 0
DWIDTH 12 0
BBX 12 10 0 0
BITMAP
FFC0
FFC0
F330
F330
F330
F330
F330
F330
F330
F330
ENDCHAR
STARTCHAR $78
ENCODING 110
SWIDTH 1440 0
DWIDTH 12 0
BBX 10 10 0 0
BITMAP
FF00
FF00
F3C0
F3C0
F3C0
F3C0
F3C0
F3C0
F3C0
F3C0
ENDCHAR
STARTCHAR $79
ENCODING 111
SWIDTH 1440 0
DWIDTH 12 0
BBX 10 10 0 0
BITMAP
3F00
3F00
F3C0
F3C0
F3C0
F3C0
F3C0
F3C0
3F00
3F00
ENDCHAR
STARTCHAR $80
ENCODING 112
SWIDTH 1440 0
DWIDTH 12 0
BBX 10 14 0 -4
BITMAP
FF00
FF00
F3C0
F3C0
F3C0
F3C0
F3C0
F3C0
FF00
FF00
F000
F000
F000
F000
ENDCHAR
STARTCHAR $81
ENCODING 113
SWIDTH 1440 0
DWIDTH 12 0
BBX 10 14 0 -4
BITMAP
3FC0
3FC0
F3C0
F3C0
F3C0
F3C0
F3C0
F3C0
3FC0
3FC0
03C0
03C0
03C0
03C0
ENDCHAR
STARTCHAR $82
ENCODING 114
SWIDTH 1440 0
DWIDTH 12 0
BBX 10 10 0 0
BITMAP
FF00
FF00
F3C0
F3C0
F000
F000
F000
F000
F000
F000
ENDCHAR
STARTCHAR $83
ENCODING 115
SWIDTH 1440 0
DWIDTH 12 0
BBX 10 10 0 0
BITMAP
3FC0
3FC0
FC00
FC00
3F00
3F00
0FC0
0FC0
FF00
FF00
ENDCHAR
STARTCHAR $84
ENCODING 116
SWIDTH 1440 0
DWIDTH 12 0
BBX 8 14 0 0
BITMAP
3C
3C
3C
3C
FF
FF
3C
3C
3C
3C
3C
3C
3F
3F
ENDCHAR
STARTCHAR $85
ENCODING 117
SWIDTH 1440 0
DWIDTH 12 0
BBX 10 10 0 0
BITMAP
F3C0
F3C0
F3C0
F3C0
F3C0
F3C0
F3C0
F3C0
3FC0
3FC0
ENDCHAR
STARTCHAR $86
ENCODING 118
SWIDTH 1440 0
DWIDTH 12 0
BBX 10 10 0 0
BITMAP
F3C0
F3C0
F3C0
F3C0
F3C0
F3C0
3F00
3F00
0C00
0C00
ENDCHAR
STARTCHAR $87
ENCODING 119
SWIDTH 1440 0
DWIDTH 12 0
BBX 12 10 0 0
BITMAP
F330
F330
F330
F330
F330
F330
F330
F330
3CC0
3CC0
ENDCHAR
STARTCHAR $88
ENCODING 120
SWIDTH 1440 0
DWIDTH 12 0
BBX 10 10 0 0
BITMAP
F3C0
F3C0
3F00
3F00
0C00
0C00
3F00
3F00
F3C0
F3C0
ENDCHAR
STARTCHAR $89
ENCODING 121
SWIDTH 1440 0
DWIDTH 12 0
BBX 10 14 0 -4
BITMAP
F3C0
F3C0
F3C0
F3C0
F3C0
F3C0
F3C0
F3C0
3FC0
3FC0
03C0
03C0
3F00
3F00
ENDCHAR
STARTCHAR $90
ENCODING 122
SWIDTH 1440 0
DWIDTH 12 0
BBX 10 10 0 0
BITMAP
FFC0
FFC0
0FC0
0FC0
3F00
3F00
FC00
FC00
FFC0
FFC0
ENDCHAR
STARTCHAR $91
ENCODING 123
SWIDTH 1440 0
DWIDTH 12 0
BBX 8 22 2 -4
BITMAP
0F
0F
3C
3C
3C
3C
3C
3C
3C
3C
F0
F0
3C
3C
3C
3C
3C
3C
3C
3C
0F
0F
ENDCHAR
STARTCHAR $92
ENCODING 124
SWIDTH 1440 0
DWIDTH 12 0
BBX 4 18 4 -2
BITMAP
F0
F0
F0
F0
F0
F0
F0
F0
F0
F0
F0
F0
F0
F0
F0
F0
F0
F0
ENDCHAR
STARTCHAR $93
ENCODING 125
SWIDTH 1440 0
DWIDTH 12 0
BBX 8 22 0 -4
BITMAP
F0
F0
3C
3C
3C
3C
3C
3C
3C
3C
0F
0F
3C
3C
3C
3C
3C
3C
3C
3C
F0
F0
ENDCHAR
STARTCHAR $94
ENCODING 126
SWIDTH 1440 0
DWIDTH 12 0
BBX 12 4 0 6
BITMAP
3C30
3C30
C3C0
C3C0
ENDCHAR
STARTCHAR $95
ENCODING 127
SWIDTH 1440 0
DWIDTH 12 0
BBX 0 0 0 0
BITMAP
ENDCHAR
STARTCHAR $96
ENCODING 128
SWIDTH 1440 0
DWIDTH 12 0
BBX 0 0 0 0
BITMAP
ENDCHAR
STARTCHAR $97
ENCODING 129
SWIDTH 1440 0
DWIDTH 12 0
BBX 0 0 0 0
BITMAP
ENDCHAR
STARTCHAR $98
ENCODING 130
SWIDTH 1440 0
DWIDTH 12 0
BBX 4 6 0 -2
BITMAP
30
30
30
30
C0
C0
ENDCHAR
STARTCHAR $99
ENCODING 131
SWIDTH 1440 0
DWIDTH 12 0
BBX 10 22 0 -4
BITMAP
03C0
03C0
0C00
0C00
0C00
0C00
0C00
0C00
3F00
3F00
0C00
0C00
0C00
0C00
0C00
0C00
0C00
0C00
0C00
0C00
F000
F000
ENDCHAR
STARTCHAR $100
ENCODING 132
SWIDTH 1440 0
DWIDTH 12 0
BBX 8 6 0 -2
BITMAP
33
33
33
33
CC
CC
ENDCHAR
STARTCHAR $101
ENCODING 133
SWIDTH 1440 0
DWIDTH 12 0
BBX 10 2 0 0
BITMAP
CCC0
CCC0
ENDCHAR
STARTCHAR $102
ENCODING 134
SWIDTH 1440 0
DWIDTH 12 0
BBX 6 10 2 4
BITMAP
30
30
FC
FC
30
30
30
30
30
30
ENDCHAR
STARTCHAR $103
ENCODING 135
SWIDTH 1440 0
DWIDTH 12 0
BBX 6 10 2 4
BITMAP
30
30
FC
FC
30
30
FC
FC
30
30
ENDCHAR
STARTCHAR $104
ENCODING 136
SWIDTH 1440 0
DWIDTH 12 0
BBX 6 4 2 12
BITMAP
30
30
CC
CC
ENDCHAR
STARTCHAR $105
ENCODING 137
SWIDTH 1440 0
DWIDTH 12 0
BBX 12 14 0 0
BITMAP
3000
3000
CCC0
CCC0
3300
3300
0C00
0C00
30C0
30C0
CF30
CF30
30C0
30C0
ENDCHAR
STARTCHAR $106
ENCODING 138
SWIDTH 1440 0
DWIDTH 12 0
BBX 10 18 0 0
BITMAP
3300
3300
0C00
0C00
3F00
3F00
C0C0
C0C0
C000
C000
3F00
3F00
00C0
00C0
C0C0
C0C0
3F00
3F00
ENDCHAR
STARTCHAR $107
ENCODING 139
SWIDTH 1440 0
DWIDTH 12 0
BBX 4 8 0 0
BITMAP
30
30
C0
C0
C0
C0
30
30
ENDCHAR
STARTCHAR $108
ENCODING 140
SWIDTH 1440 0
DWIDTH 12 0
BBX 10 14 0 0
BITMAP
3FC0
3FC0
CC00
CC00
CC00
CC00
CF00
CF00
CC00
CC00
CC00
CC00
3FC0
3FC0
ENDCHAR
STARTCHAR $109
ENCODING 141
SWIDTH 1440 0
DWIDTH 12 0
BBX 0 0 0 0
BITMAP
ENDCHAR
STARTCHAR $110
ENCODING 142
SWIDTH 1440 0
DWIDTH 12 0
BBX 0 0 0 0
BITMAP
ENDCHAR
STARTCHAR $111
ENCODING 143
SWIDTH 1440 0
DWIDTH 12 0
BBX 0 0 0 0
BITMAP
ENDCHAR
STARTCHAR $112
ENCODING 144
SWIDTH 1440 0
DWIDTH 12 0
BBX 0 0 0 0
BITMAP
ENDCHAR
STARTCHAR $113
ENCODING 145
SWIDTH 1440 0
DWIDTH 12 0
BBX 4 6 4 8
BITMAP
30
30
C0
C0
C0
C0
ENDCHAR
STARTCHAR $114
ENCODING 146
SWIDTH 1440 0
DWIDTH 12 0
BBX 4 6 4 8
BITMAP
30
30
30
30
C0
C0
ENDCHAR
STARTCHAR $115
ENCODING 147
SWIDTH 1440 0
DWIDTH 12 0
BBX 8 6 2 8
BITMAP
33
33
CC
CC
CC
CC
ENDCHAR
STARTCHAR $116
ENCODING 148
SWIDTH 1440 0
DWIDTH 12 0
BBX 8 6 2 8
BITMAP
33
33
33
33
CC
CC
ENDCHAR
STARTCHAR $117
ENCODING 149
SWIDTH 1440 0
DWIDTH 12 0
BBX 10 10 0 2
BITMAP
3F00
3F00
FFC0
FFC0
FFC0
FFC0
FFC0
FFC0
3F00
3F00
ENDCHAR
STARTCHAR $118
ENCODING 150
SWIDTH 1440 0
DWIDTH 12 0
BBX 6 2 2 6
BITMAP
FC
FC
ENDCHAR
STARTCHAR $119
ENCODING 151
SWIDTH 1440 0
DWIDTH 12 0
BBX 12 2 0 6
BITMAP
FFF0
FFF0
ENDCHAR
STARTCHAR $120
ENCODING 152
SWIDTH 1440 0
DWIDTH 12 0
BBX 10 4 0 12
BITMAP
3CC0
3CC0
CF00
CF00
ENDCHAR
STARTCHAR $121
ENCODING 153
SWIDTH 1440 0
DWIDTH 12 0
BBX 12 6 0 8
BITMAP
FF30
FF30
33F0
33F0
33F0
33F0
ENDCHAR
STARTCHAR $122
ENCODING 154
SWIDTH 1440 0
DWIDTH 12 0
BBX 10 16 0 0
BITMAP
3300
3300
0C00
0C00
0000
0000
3FC0
3FC0
C000
C000
3F00
3F00
00C0
00C0
FF00
FF00
ENDCHAR
STARTCHAR $123
ENCODING 155
SWIDTH 1440 0
DWIDTH 12 0
BBX 4 8 0 0
BITMAP
C0
C0
30
30
30
30
C0
C0
ENDCHAR
STARTCHAR $124
ENCODING 156
SWIDTH 1440 0
DWIDTH 12 0
BBX 10 10 0 0
BITMAP
3300
3300
CCC0
CCC0
CFC0
CFC0
CC00
CC00
33C0
33C0
ENDCHAR
STARTCHAR $125
ENCODING 157
SWIDTH 1440 0
DWIDTH 12 0
BBX 0 0 0 0
BITMAP
ENDCHAR
STARTCHAR $126
ENCODING 158
SWIDTH 1440 0
DWIDTH 12 0
BBX 0 0 0 0
BITMAP
ENDCHAR
STARTCHAR $127
ENCODING 159
SWIDTH 1440 0
DWIDTH 12 0
BBX 10 18 0 0
BITMAP
3300
3300
0000
0000
C0C0
C0C0
C0C0
C0C0
C0C0
C0C0
3300
3300
0C00
0C00
0C00
0C00
0C00
0C00
ENDCHAR
STARTCHAR $128
ENCODING 160
SWIDTH 1440 0
DWIDTH 12 0
BBX 0 0 0 0
BITMAP
ENDCHAR
STARTCHAR $129
ENCODING 161
SWIDTH 1440 0
DWIDTH 12 0
BBX 4 14 4 0
BITMAP
F0
F0
00
00
F0
F0
F0
F0
F0
F0
F0
F0
F0
F0
ENDCHAR
STARTCHAR $130
ENCODING 162
SWIDTH 1440 0
DWIDTH 12 0
BBX 10 14 0 -2
BITMAP
0C00
0C00
3FC0
3FC0
FC00
FC00
FC00
FC00
FC00
FC00
3FC0
3FC0
0C00
0C00
ENDCHAR
STARTCHAR $131
ENCODING 163
SWIDTH 1440 0
DWIDTH 12 0
BBX 10 16 0 0
BITMAP
3C00
3C00
F300
F300
F000
F000
FC00
FC00
F000
F000
F000
F000
F3C0
F3C0
FF00
FF00
ENDCHAR
STARTCHAR $132
ENCODING 164
SWIDTH 1440 0
DWIDTH 12 0
BBX 10 10 0 0
BITMAP
F3C0
F3C0
3F00
3F00
3300
3300
3F00
3F00
F3C0
F3C0
ENDCHAR
STARTCHAR $133
ENCODING 165
SWIDTH 1440 0
DWIDTH 12 0
BBX 10 14 0 0
BITMAP
F0C0
F0C0
3F00
3F00
FFC0
FFC0
0C00
0C00
FFC0
FFC0
0C00
0C00
0C00
0C00
ENDCHAR
STARTCHAR $134
ENCODING 166
SWIDTH 1440 0
DWIDTH 12 0
BBX 4 18 4 -2
BITMAP
F0
F0
F0
F0
F0
F0
F0
F0
00
00
F0
F0
F0
F0
F0
F0
F0
F0
ENDCHAR
STARTCHAR $135
ENCODING 167
SWIDTH 1440 0
DWIDTH 12 0
BBX 8 22 2 -4
BITMAP
3C
3C
C3
C3
F0
F0
3C
3C
CF
CF
F3
F3
3F
3F
0C
0C
03
03
F3
F3
3C
3C
ENDCHAR
STARTCHAR $136
ENCODING 168
SWIDTH 1440 0
DWIDTH 12 0
BBX 10 2 0 12
BITMAP
F3C0
F3C0
ENDCHAR
STARTCHAR $137
ENCODING 169
SWIDTH 1440 0
DWIDTH 12 0
BBX 10 14 0 0
BITMAP
FC00
FC00
0300
0300
3CC0
3CC0
F0C0
F0C0
3CC0
3CC0
0300
0300
FC00
FC00
ENDCHAR
STARTCHAR $138
ENCODING 170
SWIDTH 1440 0
DWIDTH 12 0
BBX 8 12 2 6
BITMAP
3F
3F
F3
F3
F3
F3
3F
3F
00
00
FF
FF
ENDCHAR
STARTCHAR $139
ENCODING 171
SWIDTH 1440 0
DWIDTH 12 0
BBX 12 8 0 0
BITMAP
3CF0
3CF0
F3C0
F3C0
F3C0
F3C0
3CF0
3CF0
ENDCHAR
STARTCHAR $140
ENCODING 172
SWIDTH 1440 0
DWIDTH 12 0
BBX 10 6 0 2
BITMAP
FFC0
FFC0
03C0
03C0
03C0
03C0
ENDCHAR
STARTCHAR $141
ENCODING 173
SWIDTH 1440 0
DWIDTH 12 0
BBX 10 2 0 6
BITMAP
FFC0
FFC0
ENDCHAR
STARTCHAR $142
ENCODING 174
SWIDTH 1440 0
DWIDTH 12 0
BBX 10 12 0 2
BITMAP
FC00
FC00
0300
0300
FCC0
FCC0
F3C0
F3C0
FCC0
FCC0
F300
F300
ENDCHAR
STARTCHAR $143
ENCODING 175
SWIDTH 1440 0
DWIDTH 12 0
BBX 8 2 2 12
BITMAP
FF
FF
ENDCHAR
STARTCHAR $144
ENCODING 176
SWIDTH 1440 0
DWIDTH 12 0
BBX 8 8 2 8
BITMAP
3C
3C
F3
F3
F3
F3
3C
3C
ENDCHAR
STARTCHAR $145
ENCODING 177
SWIDTH 1440 0
DWIDTH 12 0
BBX 12 12 0 0
BITMAP
0F00
0F00
0F00
0F00
FFF0
FFF0
0F00
0F00
0F00
0F00
FFF0
FFF0
ENDCHAR
STARTCHAR $146
ENCODING 178
SWIDTH 1440 0
DWIDTH 12 0
BBX 8 8 0 10
BITMAP
FC
FC
0F
0F
3C
3C
FF
FF
ENDCHAR
STARTCHAR $147
ENCODING 179
SWIDTH 1440 0
DWIDTH 12 0
BBX 6 10 2 8
BITMAP
F0
F0
3C
3C
FC
FC
3C
3C
F0
F0
ENDCHAR
STARTCHAR $148
ENCODING 180
SWIDTH 1440 0
DWIDTH 12 0
BBX 8 6 2 10
BITMAP
0F
0F
3C
3C
F0
F0
ENDCHAR
STARTCHAR $149
ENCODING 181
SWIDTH 1440 0
DWIDTH 12 0
BBX 10 14 0 -4
BITMAP
F300
F300
F300
F300
F300
F300
F300
F300
FCC0
FCC0
F000
F000
F000
F000
ENDCHAR
STARTCHAR $150
ENCODING 182
SWIDTH 1440 0
DWIDTH 12 0
BBX 10 16 0 0
BITMAP
3FC0
3FC0
CCC0
CCC0
CCC0
CCC0
CCC0
CCC0
3FC0
3FC0
0CC0
0CC0
0CC0
0CC0
0CC0
0CC0
ENDCHAR
STARTCHAR $151
ENCODING 183
SWIDTH 1440 0
DWIDTH 12 0
BBX 6 4 2 4
BITMAP
FC
FC
FC
FC
ENDCHAR
STARTCHAR $152
ENCODING 184
SWIDTH 1440 0
DWIDTH 12 0
BBX 6 6 2 -4
BITMAP
FC
FC
3C
3C
F0
F0
ENDCHAR
STARTCHAR $153
ENCODING 185
SWIDTH 1440 0
DWIDTH 12 0
BBX 8 8 2 10
BITMAP
FC
FC
3C
3C
3C
3C
FF
FF
ENDCHAR
STARTCHAR $154
ENCODING 186
SWIDTH 1440 0
DWIDTH 12 0
BBX 8 12 0 6
BITMAP
3C
3C
F3
F3
F3
F3
3C
3C
00
00
FF
FF
ENDCHAR
STARTCHAR $155
ENCODING 187
SWIDTH 1440 0
DWIDTH 12 0
BBX 12 8 0 0
BITMAP
F3C0
F3C0
3CF0
3CF0
3CF0
3CF0
F3C0
F3C0
ENDCHAR
STARTCHAR $156
ENCODING 188
SWIDTH 1440 0
DWIDTH 12 0
BBX 12 18 0 0
BITMAP
F000
F000
3030
3030
30F0
30F0
FFC0
FFC0
0F00
0F00
3CC0
3CC0
F3C0
F3C0
CFC0
CFC0
00C0
00C0
ENDCHAR
STARTCHAR $157
ENCODING 189
SWIDTH 1440 0
DWIDTH 12 0
BBX 12 18 0 0
BITMAP
F000
F000
3030
3030
30F0
30F0
FFC0
FFC0
0F00
0F00
3FC0
3FC0
F030
F030
C0C0
C0C0
03F0
03F0
ENDCHAR
STARTCHAR $158
ENCODING 190
SWIDTH 1440 0
DWIDTH 12 0
BBX 12 18 0 0
BITMAP
F000
F000
0C30
0C30
3CF0
3CF0
0FC0
0FC0
F300
F300
3CC0
3CC0
F3C0
F3C0
CFC0
CFC0
00C0
00C0
ENDCHAR
STARTCHAR $159
ENCODING 191
SWIDTH 1440 0
DWIDTH 12 0
BBX 10 14 0 0
BITMAP
0F00
0F00
0000
0000
0F00
0F00
3C00
3C00
F000
F000
F3C0
F3C0
3F00
3F00
ENDCHAR
STARTCHAR $160
ENCODING 192
SWIDTH 1440 0
DWIDTH 12 0
BBX 10 18 0 0
BITMAP
3C00
3C00
0F00
0F00
3F00
3F00
F3C0
F3C0
F3C0
F3C0
FFC0
FFC0
F3C0
F3C0
F3C0
F3C0
F3C0
F3C0
ENDCHAR
STARTCHAR $161
ENCODING 193
SWIDTH 1440 0
DWIDTH 12 0
BBX 10 18 0 0
BITMAP
0F00
0F00
3C00
3C00
3F00
3F00
F3C0
F3C0
F3C0
F3C0
FFC0
FFC0
F3C0
F3C0
F3C0
F3C0
F3C0
F3C0
ENDCHAR
STARTCHAR $162
ENCODING 194
SWIDTH 1440 0
DWIDTH 12 0
BBX 10 18 0 0
BITMAP
0C00
0C00
3300
3300
0000
0000
3F00
3F00
F3C0
F3C0
F3C0
F3C0
FFC0
FFC0
F3C0
F3C0
F3C0
F3C0
ENDCHAR
STARTCHAR $163
ENCODING 195
SWIDTH 1440 0
DWIDTH 12 0
BBX 10 18 0 0
BITMAP
3CC0
3CC0
CF00
CF00
0000
0000
3F00
3F00
F3C0
F3C0
F3C0
F3C0
FFC0
FFC0
F3C0
F3C0
F3C0
F3C0
ENDCHAR
STARTCHAR $164
ENCODING 196
SWIDTH 1440 0
DWIDTH 12 0
BBX 10 18 0 0
BITMAP
3300
3300
0000
0000
3F00
3F00
F3C0
F3C0
F3C0
F3C0
FFC0
FFC0
F3C0
F3C0
F3C0
F3C0
F3C0
F3C0
ENDCHAR
STARTCHAR $165
ENCODING 197
SWIDTH 1440 0
DWIDTH 12 0
BBX 10 18 0 0
BITMAP
0C00
0C00
3300
3300
0C00
0C00
3F00
3F00
F3C0
F3C0
F3C0
F3C0
FFC0
FFC0
F3C0
F3C0
F3C0
F3C0
ENDCHAR
STARTCHAR $166
ENCODING 198
SWIDTH 1440 0
DWIDTH 12 0
BBX 10 14 0 0
BITMAP
3FC0
3FC0
F300
F300
F300
F300
FFC0
FFC0
F300
F300
F300
F300
F3C0
F3C0
ENDCHAR
STARTCHAR $167
ENCODING 199
SWIDTH 1440 0
DWIDTH 12 0
BBX 10 18 0 -4
BITMAP
3F00
3F00
F3C0
F3C0
F000
F000
F000
F000
F000
F000
F3C0
F3C0
3F00
3F00
0F00
0F00
3C00
3C00
ENDCHAR
STARTCHAR $168
ENCODING 200
SWIDTH 1440 0
DWIDTH 12 0
BBX 10 18 0 0
BITMAP
3000
3000
0C00
0C00
FFC0
FFC0
F000
F000
F000
F000
FF00
FF00
F000
F000
F000
F000
FFC0
FFC0
ENDCHAR
STARTCHAR $169
ENCODING 201
SWIDTH 1440 0
DWIDTH 12 0
BBX 10 18 0 0
BITMAP
0300
0300
0C00
0C00
FFC0
FFC0
F000
F000
F000
F000
FF00
FF00
F000
F000
F000
F000
FFC0
FFC0
ENDCHAR
STARTCHAR $170
ENCODING 202
SWIDTH 1440 0
DWIDTH 12 0
BBX 10 18 0 0
BITMAP
0C00
0C00
3300
3300
FFC0
FFC0
F000
F000
F000
F000
FF00
FF00
F000
F000
F000
F000
FFC0
FFC0
ENDCHAR
STARTCHAR $171
ENCODING 203
SWIDTH 1440 0
DWIDTH 12 0
BBX 10 18 0 0
BITMAP
3300
3300
0000
0000
FFC0
FFC0
F000
F000
F000
F000
FF00
FF00
F000
F000
F000
F000
FFC0
FFC0
ENDCHAR
STARTCHAR $172
ENCODING 204
SWIDTH 1440 0
DWIDTH 12 0
BBX 6 18 4 0
BITMAP
F0
F0
3C
3C
00
00
F0
F0
F0
F0
F0
F0
F0
F0
F0
F0
F0
F0
ENDCHAR
STARTCHAR $173
ENCODING 205
SWIDTH 1440 0
DWIDTH 12 0
BBX 6 18 0 0
BITMAP
3C
3C
F0
F0
00
00
3C
3C
3C
3C
3C
3C
3C
3C
3C
3C
3C
3C
ENDCHAR
STARTCHAR $174
ENCODING 206
SWIDTH 1440 0
DWIDTH 12 0
BBX 6 18 2 0
BITMAP
30
30
CC
CC
00
00
3C
3C
3C
3C
3C
3C
3C
3C
3C
3C
3C
3C
ENDCHAR
STARTCHAR $175
ENCODING 207
SWIDTH 1440 0
DWIDTH 12 0
BBX 6 18 2 0
BITMAP
CC
CC
00
00
3C
3C
3C
3C
3C
3C
3C
3C
3C
3C
3C
3C
3C
3C
ENDCHAR
STARTCHAR $176
ENCODING 208
SWIDTH 1440 0
DWIDTH 12 0
BBX 10 14 0 0
BITMAP
3F00
3F00
3CC0
3CC0
3CC0
3CC0
FFC0
FFC0
3CC0
3CC0
3CC0
3CC0
3F00
3F00
ENDCHAR
STARTCHAR $177
ENCODING 209
SWIDTH 1440 0
DWIDTH 12 0
BBX 10 18 0 0
BITMAP
3CC0
3CC0
CF00
CF00
F0C0
F0C0
FCC0
FCC0
FFC0
FFC0
F3C0
F3C0
F3C0
F3C0
F3C0
F3C0
F3C0
F3C0
ENDCHAR
STARTCHAR $178
ENCODING 210
SWIDTH 1440 0
DWIDTH 12 0
BBX 10 18 0 0
BITMAP
3000
3000
0C00
0C00
3F00
3F00
F3C0
F3C0
F3C0
F3C0
F3C0
F3C0
F3C0
F3C0
F3C0
F3C0
3F00
3F00
ENDCHAR
STARTCHAR $179
ENCODING 211
SWIDTH 1440 0
DWIDTH 12 0
BBX 10 18 0 0
BITMAP
0300
0300
0C00
0C00
3F00
3F00
F3C0
F3C0
F3C0
F3C0
F3C0
F3C0
F3C0
F3C0
F3C0
F3C0
3F00
3F00
ENDCHAR
STARTCHAR $180
ENCODING 212
SWIDTH 1440 0
DWIDTH 12 0
BBX 10 18 0 0
BITMAP
0C00
0C00
3300
3300
0000
0000
3F00
3F00
F3C0
F3C0
F3C0
F3C0
F3C0
F3C0
F3C0
F3C0
3F00
3F00
ENDCHAR
STARTCHAR $181
ENCODING 213
SWIDTH 1440 0
DWIDTH 12 0
BBX 10 18 0 0
BITMAP
3CC0
3CC0
CF00
CF00
3F00
3F00
F3C0
F3C0
F3C0
F3C0
F3C0
F3C0
F3C0
F3C0
F3C0
F3C0
3F00
3F00
ENDCHAR
STARTCHAR $182
ENCODING 214
SWIDTH 1440 0
DWIDTH 12 0
BBX 10 18 0 0
BITMAP
3300
3300
0000
0000
3F00
3F00
F3C0
F3C0
F3C0
F3C0
F3C0
F3C0
F3C0
F3C0
F3C0
F3C0
3F00
3F00
ENDCHAR
STARTCHAR $183
ENCODING 215
SWIDTH 1440 0
DWIDTH 12 0
BBX 10 10 0 2
BITMAP
F3C0
F3C0
3F00
3F00
0C00
0C00
3F00
3F00
F3C0
F3C0
ENDCHAR
STARTCHAR $184
ENCODING 216
SWIDTH 1440 0
DWIDTH 12 0
BBX 10 14 0 0
BITMAP
3F00
3F00
F0C0
F0C0
F3C0
F3C0
FFC0
FFC0
F3C0
F3C0
C3C0
C3C0
3F00
3F00
ENDCHAR
STARTCHAR $185
ENCODING 217
SWIDTH 1440 0
DWIDTH 12 0
BBX 10 18 0 0
BITMAP
3C00
3C00
0F00
0F00
0000
0000
F3C0
F3C0
F3C0
F3C0
F3C0
F3C0
F3C0
F3C0
F3C0
F3C0
3F00
3F00
ENDCHAR
STARTCHAR $186
ENCODING 218
SWIDTH 1440 0
DWIDTH 12 0
BBX 10 18 0 0
BITMAP
0F00
0F00
3C00
3C00
0000
0000
F3C0
F3C0
F3C0
F3C0
F3C0
F3C0
F3C0
F3C0
F3C0
F3C0
3F00
3F00
ENDCHAR
STARTCHAR $187
ENCODING 219
SWIDTH 1440 0
DWIDTH 12 0
BBX 10 18 0 0
BITMAP
0F00
0F00
3C00
3C00
0000
0000
F3C0
F3C0
F3C0
F3C0
F3C0
F3C0
F3C0
F3C0
F3C0
F3C0
3F00
3F00
ENDCHAR
STARTCHAR $188
ENCODING 220
SWIDTH 1440 0
DWIDTH 12 0
BBX 10 18 0 0
BITMAP
3300
3300
0000
0000
F3C0
F3C0
F3C0
F3C0
F3C0
F3C0
F3C0
F3C0
F3C0
F3C0
F3C0
F3C0
3F00
3F00
ENDCHAR
STARTCHAR $189
ENCODING 221
SWIDTH 1440 0
DWIDTH 12 0
BBX 12 18 0 0
BITMAP
03C0
03C0
0F00
0F00
FCF0
FCF0
FCF0
FCF0
3CC0
3CC0
3FC0
3FC0
0F00
0F00
0F00
0F00
0F00
0F00
ENDCHAR
STARTCHAR $190
ENCODING 222
SWIDTH 1440 0
DWIDTH 12 0
BBX 8 14 0 0
BITMAP
F0
F0
FC
FC
F3
F3
F3
F3
FC
FC
F0
F0
F0
F0
ENDCHAR
STARTCHAR $191
ENCODING 223
SWIDTH 1440 0
DWIDTH 12 0
BBX 10 18 0 -2
BITMAP
0F00
0F00
33C0
33C0
F0C0
F0C0
F300
F300
F300
F300
F0C0
F0C0
F3C0
F3C0
CF00
CF00
C000
C000
ENDCHAR
STARTCHAR $192
ENCODING 224
SWIDTH 1440 0
DWIDTH 12 0
BBX 10 16 0 0
BITMAP
0C00
0C00
0300
0300
0000
0000
3FC0
3FC0
F3C0
F3C0
F3C0
F3C0
F3C0
F3C0
3FC0
3FC0
ENDCHAR
STARTCHAR $193
ENCODING 225
SWIDTH 1440 0
DWIDTH 12 0
BBX 10 16 0 0
BITMAP
0300
0300
0C00
0C00
0000
0000
3FC0
3FC0
F3C0
F3C0
F3C0
F3C0
F3C0
F3C0
3FC0
3FC0
ENDCHAR
STARTCHAR $194
ENCODING 226
SWIDTH 1440 0
DWIDTH 12 0
BBX 10 16 0 0
BITMAP
0C00
0C00
3300
3300
0000
0000
3FC0
3FC0
F3C0
F3C0
F3C0
F3C0
F3C0
F3C0
3FC0
3FC0
ENDCHAR
STARTCHAR $195
ENCODING 227
SWIDTH 1440 0
DWIDTH 12 0
BBX 10 16 0 0
BITMAP
3CC0
3CC0
CF00
CF00
0000
0000
3FC0
3FC0
F3C0
F3C0
F3C0
F3C0
F3C0
F3C0
3FC0
3FC0
ENDCHAR
STARTCHAR $196
ENCODING 228
SWIDTH 1440 0
DWIDTH 12 0
BBX 10 14 0 0
BITMAP
3300
3300
0000
0000
3FC0
3FC0
F3C0
F3C0
F3C0
F3C0
F3C0
F3C0
3FC0
3FC0
ENDCHAR
STARTCHAR $197
ENCODING 229
SWIDTH 1440 0
DWIDTH 12 0
BBX 10 16 0 0
BITMAP
0C00
0C00
3300
3300
0C00
0C00
3FC0
3FC0
F3C0
F3C0
F3C0
F3C0
F3C0
F3C0
3FC0
3FC0
ENDCHAR
STARTCHAR $198
ENCODING 230
SWIDTH 1440 0
DWIDTH 12 0
BBX 12 10 0 0
BITMAP
3FC0
3FC0
F330
F330
F3F0
F3F0
F300
F300
3FF0
3FF0
ENDCHAR
STARTCHAR $199
ENCODING 231
SWIDTH 1440 0
DWIDTH 12 0
BBX 10 14 0 -4
BITMAP
3FC0
3FC0
F000
F000
F000
F000
F000
F000
3FC0
3FC0
0C00
0C00
3000
3000
ENDCHAR
STARTCHAR $200
ENCODING 232
SWIDTH 1440 0
DWIDTH 12 0
BBX 10 16 0 0
BITMAP
3000
3000
0C00
0C00
0000
0000
3F00
3F00
F3C0
F3C0
FFC0
FFC0
F000
F000
3F00
3F00
ENDCHAR
STARTCHAR $201
ENCODING 233
SWIDTH 1440 0
DWIDTH 12 0
BBX 10 16 0 0
BITMAP
0300
0300
0C00
0C00
0000
0000
3F00
3F00
F3C0
F3C0
FFC0
FFC0
F000
F000
3F00
3F00
ENDCHAR
STARTCHAR $202
ENCODING 234
SWIDTH 1440 0
DWIDTH 12 0
BBX 10 16 0 0
BITMAP
0C00
0C00
3300
3300
0000
0000
3F00
3F00
F3C0
F3C0
FFC0
FFC0
F000
F000
3F00
3F00
ENDCHAR
STARTCHAR $203
ENCODING 235
SWIDTH 1440 0
DWIDTH 12 0
BBX 10 14 0 0
BITMAP
3300
3300
0000
0000
3F00
3F00
F3C0
F3C0
FFC0
FFC0
F000
F000
3F00
3F00
ENDCHAR
STARTCHAR $204
ENCODING 236
SWIDTH 1440 0
DWIDTH 12 0
BBX 6 16 4 0
BITMAP
F0
F0
3C
3C
00
00
F0
F0
F0
F0
F0
F0
F0
F0
F0
F0
ENDCHAR
STARTCHAR $205
ENCODING 237
SWIDTH 1440 0
DWIDTH 12 0
BBX 6 16 2 0
BITMAP
3C
3C
F0
F0
00
00
3C
3C
3C
3C
3C
3C
3C
3C
3C
3C
ENDCHAR
STARTCHAR $206
ENCODING 238
SWIDTH 1440 0
DWIDTH 12 0
BBX 8 16 2 0
BITMAP
3C
3C
FF
FF
00
00
3C
3C
3C
3C
3C
3C
3C
3C
3C
3C
ENDCHAR
STARTCHAR $207
ENCODING 239
SWIDTH 1440 0
DWIDTH 12 0
BBX 10 14 0 0
BITMAP
F3C0
F3C0
0000
0000
0F00
0F00
0F00
0F00
0F00
0F00
0F00
0F00
0F00
0F00
ENDCHAR
STARTCHAR $208
ENCODING 240
SWIDTH 1440 0
DWIDTH 12 0
BBX 10 16 0 0
BITMAP
3C00
3C00
3C00
3C00
0300
0300
3FC0
3FC0
F3C0
F3C0
F3C0
F3C0
F3C0
F3C0
3F00
3F00
ENDCHAR
STARTCHAR $209
ENCODING 241
SWIDTH 1440 0
DWIDTH 12 0
BBX 10 16 0 0
BITMAP
3CC0
3CC0
CF00
CF00
0000
0000
FF00
FF00
F3C0
F3C0
F3C0
F3C0
F3C0
F3C0
F3C0
F3C0
ENDCHAR
STARTCHAR $210
ENCODING 242
SWIDTH 1440 0
DWIDTH 12 0
BBX 10 16 0 0
BITMAP
3C00
3C00
0F00
0F00
0000
0000
3F00
3F00
F3C0
F3C0
F3C0
F3C0
F3C0
F3C0
3F00
3F00
ENDCHAR
STARTCHAR $211
ENCODING 243
SWIDTH 1440 0
DWIDTH 12 0
BBX 10 16 0 0
BITMAP
0F00
0F00
3C00
3C00
0000
0000
3F00
3F00
F3C0
F3C0
F3C0
F3C0
F3C0
F3C0
3F00
3F00
ENDCHAR
STARTCHAR $212
ENCODING 244
SWIDTH 1440 0
DWIDTH 12 0
BBX 10 16 0 0
BITMAP
0C00
0C00
3300
3300
0000
0000
3F00
3F00
F3C0
F3C0
F3C0
F3C0
F3C0
F3C0
3F00
3F00
ENDCHAR
STARTCHAR $213
ENCODING 245
SWIDTH 1440 0
DWIDTH 12 0
BBX 10 16 0 0
BITMAP
3CC0
3CC0
CF00
CF00
0000
0000
3F00
3F00
F3C0
F3C0
F3C0
F3C0
F3C0
F3C0
3F00
3F00
ENDCHAR
STARTCHAR $214
ENCODING 246
SWIDTH 1440 0
DWIDTH 12 0
BBX 10 14 0 0
BITMAP
3300
3300
0000
0000
3F00
3F00
F3C0
F3C0
F3C0
F3C0
F3C0
F3C0
3F00
3F00
ENDCHAR
STARTCHAR $215
ENCODING 247
SWIDTH 1440 0
DWIDTH 12 0
BBX 12 10 0 2
BITMAP
0F00
0F00
0000
0000
FFF0
FFF0
0000
0000
0F00
0F00
ENDCHAR
STARTCHAR $216
ENCODING 248
SWIDTH 1440 0
DWIDTH 12 0
BBX 10 10 0 0
BITMAP
3F00
3F00
F3C0
F3C0
FFC0
FFC0
F3C0
F3C0
3F00
3F00
ENDCHAR
STARTCHAR $217
ENCODING 249
SWIDTH 1440 0
DWIDTH 12 0
BBX 10 16 0 0
BITMAP
3C00
3C00
0F00
0F00
0000
0000
F3C0
F3C0
F3C0
F3C0
F3C0
F3C0
F3C0
F3C0
3FC0
3FC0
ENDCHAR
STARTCHAR $218
ENCODING 250
SWIDTH 1440 0
DWIDTH 12 0
BBX 10 16 0 0
BITMAP
0F00
0F00
3C00
3C00
0000
0000
F3C0
F3C0
F3C0
F3C0
F3C0
F3C0
F3C0
F3C0
3FC0
3FC0
ENDCHAR
STARTCHAR $219
ENCODING 251
SWIDTH 1440 0
DWIDTH 12 0
BBX 10 16 0 0
BITMAP
0C00
0C00
3300
3300
0000
0000
F3C0
F3C0
F3C0
F3C0
F3C0
F3C0
F3C0
F3C0
3FC0
3FC0
ENDCHAR
STARTCHAR $220
ENCODING 252
SWIDTH 1440 0
DWIDTH 12 0
BBX 10 14 0 0
BITMAP
3300
3300
0000
0000
F3C0
F3C0
F3C0
F3C0
F3C0
F3C0
F3C0
F3C0
3FC0
3FC0
ENDCHAR
STARTCHAR $221
ENCODING 253
SWIDTH 1440 0
DWIDTH 12 0
BBX 10 20 0 -4
BITMAP
0300
0300
0C00
0C00
0000
0000
F3C0
F3C0
F3C0
F3C0
F3C0
F3C0
F3C0
F3C0
3FC0
3FC0
03C0
03C0
3F00
3F00
ENDCHAR
STARTCHAR $222
ENCODING 254
SWIDTH 1440 0
DWIDTH 12 0
BBX 10 18 0 -4
BITMAP
F000
F000
F000
F000
FF00
FF00
F3C0
F3C0
F3C0
F3C0
F3C0
F3C0
FF00
FF00
F000
F000
F000
F000
ENDCHAR
STARTCHAR $223
ENCODING 255
SWIDTH 1440 0
DWIDTH 12 0
BBX 10 18 0 -4
BITMAP
3300
3300
0000
0000
F3C0
F3C0
F3C0
F3C0
F3C0
F3C0
F3C0
F3C0
3FC0
3FC0
03C0
03C0
3F00
3F00
ENDCHAR
STARTCHAR char1984
ENCODING 1984
SWIDTH 1440 0
DWIDTH 12 0
BBX 12 4 0 -2
BITMAP
FFF0
FFF0
FFF0
FFF0
ENDCHAR
STARTCHAR char1985
ENCODING 1985
SWIDTH 1440 0
DWIDTH 12 0
BBX 12 4 0 -2
BITMAP
CCC0
CCC0
3330
3330
ENDCHAR
STARTCHAR char1986
ENCODING 1986
SWIDTH 1440 0
DWIDTH 12 0
BBX 10 10 0 2
BITMAP
0C00
0C00
3300
3300
CCC0
CCC0
3300
3300
0C00
0C00
ENDCHAR
STARTCHAR char1987
ENCODING 1987
SWIDTH 1440 0
DWIDTH 12 0
BBX 10 10 0 2
BITMAP
0C00
0C00
3F00
3F00
FFC0
FFC0
3F00
3F00
0C00
0C00
ENDCHAR
STARTCHAR char7616
ENCODING 7616
SWIDTH 1440 0
DWIDTH 12 0
BBX 0 0 0 0
BITMAP
ENDCHAR
STARTCHAR char7617
ENCODING 7617
SWIDTH 1440 0
DWIDTH 12 0
BBX 0 0 0 0
BITMAP
ENDCHAR
STARTCHAR char11104
ENCODING 11104
SWIDTH 1440 0
DWIDTH 12 0
BBX 12 20 0 -4
BITMAP
F000
F000
F0C0
F0C0
F3F0
F3F0
F0C0
F0C0
F0C0
F0C0
F0C0
F0C0
F300
F300
FC00
FC00
F000
F000
F000
F000
ENDCHAR
STARTCHAR char11105
ENCODING 11105
SWIDTH 1440 0
DWIDTH 12 0
BBX 12 18 0 -2
BITMAP
C000
C000
C000
C000
C000
C000
FF00
FF00
0000
0000
0C30
0C30
0F30
0F30
0CF0
0CF0
0C30
0C30
ENDCHAR
STARTCHAR char11106
ENCODING 11106
SWIDTH 1440 0
DWIDTH 12 0
BBX 10 16 2 -2
BITMAP
3FC0
3FC0
C000
C000
C3C0
C3C0
C3C0
C3C0
C000
C000
C3C0
C3C0
C0C0
C0C0
3C00
3C00
ENDCHAR
STARTCHAR char11107
ENCODING 11107
SWIDTH 1440 0
DWIDTH 12 0
BBX 12 16 0 -2
BITMAP
FFC0
FFC0
0030
0030
C3C0
C3C0
C300
C300
C300
C300
C300
C300
C300
C300
3C00
3C00
ENDCHAR
STARTCHAR char11108
ENCODING 11108
SWIDTH 1440 0
DWIDTH 12 0
BBX 12 18 0 -2
BITMAP
0F00
0F00
30C0
30C0
30C0
30C0
30C0
30C0
FFF0
FFF0
F0F0
F0F0
F0F0
F0F0
FFF0
FFF0
3FC0
3FC0
ENDCHAR
STARTCHAR char11109
ENCODING 11136
SWIDTH 1440 0
DWIDTH 12 0
BBX 12 22 0 -4
BITMAP
C000
C000
F000
F000
FC00
FC00
FF00
FF00
FFC0
FFC0
FFF0
FFF0
FFC0
FFC0
FF00
FF00
FC00
FC00
F000
F000
C000
C000
ENDCHAR
STARTCHAR char11110
ENCODING 11137
SWIDTH 1440 0
DWIDTH 12 0
BBX 12 22 0 -4
BITMAP
C000
C000
3000
3000
0C00
0C00
0300
0300
00C0
00C0
0030
0030
00C0
00C0
0300
0300
0C00
0C00
3000
3000
C000
C000
ENDCHAR
STARTCHAR char11111
ENCODING 11138
SWIDTH 1440 0
DWIDTH 12 0
BBX 12 22 0 -4
BITMAP
0030
0030
00F0
00F0
03F0
03F0
0FF0
0FF0
3FF0
3FF0
FFF0
FFF0
3FF0
3FF0
0FF0
0FF0
03F0
03F0
00F0
00F0
0030
0030
ENDCHAR
STARTCHAR char11112
ENCODING 11139
SWIDTH 1440 0
DWIDTH 12 0
BBX 12 22 0 -4
BITMAP
0030
0030
00C0
00C0
0300
0300
0C00
0C00
3000
3000
C000
C000
3000
3000
0C00
0C00
0300
0300
00C0
00C0
0030
0030
ENDCHAR
ENDFONT
